<?xml version="1.0" encoding="UTF-8"?>
<svg version="1.1" xmlns="http://www.w3.org/2000/svg" width="512" height="512">
<path d="M0 0 C0.91652344 -0.01933594 1.83304688 -0.03867187 2.77734375 -0.05859375 C11.37666569 1.23999589 18.72968273 5.77783235 26 10.3125 C31.96436118 13.9937395 37.96643462 17.51606999 44.13598633 20.84326172 C49.61848977 23.82989286 55.02205712 26.95648052 60.4375 30.0625 C61.67865276 30.77337633 62.9198646 31.48414951 64.16113281 32.19482422 C66.03308535 33.26663564 67.90498038 34.33854629 69.77661133 35.41091919 C73.41865246 37.49752047 77.06330592 39.57943839 80.7109375 41.65625 C90.76124488 47.37990811 100.77105079 53.16888241 110.75512695 59.00732422 C117.20599054 62.77770616 123.66938402 66.52544174 130.14428711 70.25439453 C133.43804688 72.15181103 136.72883983 74.05429977 140.01953125 75.95703125 C143.73356763 78.10259476 147.45775238 80.22689805 151.19921875 82.32421875 C161.84498711 88.33617122 171.4591045 94.0278845 175.0625 106.4375 C175.66440354 112.31386927 175.63085538 118.16548807 175.61181641 124.06762695 C175.62052112 125.85242563 175.63089091 127.63721684 175.64279175 129.42199707 C175.66948428 134.25071309 175.67073885 139.07911518 175.66566515 143.90789056 C175.66351945 147.94838018 175.67330861 151.9888071 175.68287599 156.02928323 C175.70503674 165.56734042 175.70595825 175.10524008 175.69384766 184.64331055 C175.6817732 194.46087087 175.70638325 204.27785757 175.74898779 214.09532005 C175.78429522 222.54406378 175.7962106 230.99262555 175.78971231 239.44144028 C175.78609775 244.47877657 175.79124617 249.51570376 175.81914139 254.55297279 C175.8444123 259.29341062 175.84030464 264.03295891 175.81431961 268.77338409 C175.80961325 270.5050786 175.81496677 272.23683683 175.83156586 273.96845818 C175.94049859 286.22376082 174.32480855 295.62821998 165.953125 305.25390625 C161.18792515 309.56732349 155.45825208 312.38869004 149.8125 315.375 C147.38154041 316.68691594 144.95618258 318.0090148 142.53125 319.33203125 C141.91227844 319.66857727 141.29330688 320.00512329 140.65557861 320.35186768 C134.11006264 323.92591976 127.71040681 327.73060107 121.3125 331.5625 C112.12524808 337.05238682 102.88031372 342.41193114 93.54711914 347.64941406 C85.73233409 352.04079159 77.98504249 356.54111541 70.2487793 361.0690918 C62.90977574 365.36354866 55.55451077 369.62877135 48.1875 373.875 C47.10895752 374.49673096 46.03041504 375.11846191 44.91918945 375.7590332 C40.53704164 378.28442169 36.15424963 380.80869109 31.77148438 383.33300781 C28.49318939 385.22148493 25.2152276 387.11053829 21.9375 389 C20.32452026 389.92969604 20.32452026 389.92969604 18.67895508 390.87817383 C11.39564283 395.0803171 4.13202511 399.3151622 -3.125 403.5625 C-11.7957293 408.63543691 -20.5177602 413.60872912 -29.27392578 418.5324707 C-36.38745288 422.54061567 -43.45157174 426.62858295 -50.5 430.75 C-52.00989502 431.63002686 -52.00989502 431.63002686 -53.55029297 432.52783203 C-57.83213972 435.02539854 -62.10662209 437.53131218 -66.34765625 440.09765625 C-66.98823975 440.47946045 -67.62882324 440.86126465 -68.28881836 441.25463867 C-69.90878465 442.2208209 -71.52121641 443.19960744 -73.1328125 444.1796875 C-76.33746874 445.61687317 -78.46161672 445.77637441 -81.9375 445.4375 C-84.61062838 444.22244165 -86.3603582 443.23840562 -88.08398438 440.84651184 C-89.34415939 437.28972104 -89.02664018 433.85396013 -88.84375 430.14331055 C-88.77800527 428.41293723 -88.71335982 426.68252188 -88.6496582 424.95207214 C-88.61329254 424.03590811 -88.57692688 423.11974407 -88.53945923 422.17581749 C-88.32844759 416.27423771 -88.24846181 410.36911039 -88.14579773 404.46483135 C-88.04835783 399.28747586 -87.90474116 394.11960021 -87.65869141 388.94702148 C-85.45240387 366.96364012 -85.45240387 366.96364012 -92.39300537 347.15292358 C-98.08687229 341.82486916 -105.27226707 339.13091517 -112.55461121 336.6930542 C-118.12955795 334.62392092 -123.02384748 331.49316472 -128.0625 328.375 C-130.01675979 327.22444621 -131.97346721 326.07803026 -133.93359375 324.9375 C-134.90796387 324.36773437 -135.88233398 323.79796875 -136.88623047 323.2109375 C-140.11511382 321.33426854 -143.35519618 319.47810336 -146.59765625 317.625 C-148.23613525 316.68346069 -148.23613525 316.68346069 -149.90771484 315.72290039 C-151.9968285 314.52298377 -154.08942252 313.32909901 -156.18603516 312.14233398 C-161.09001455 309.31653215 -165.21064878 306.71482425 -168.9375 302.4375 C-169.63875 301.65375 -170.34 300.87 -171.0625 300.0625 C-175.08418194 294.43214528 -176.38489645 289.52714846 -176.33190918 282.67765808 C-176.33800028 281.92735913 -176.34409139 281.17706018 -176.35036707 280.4040249 C-176.3669298 277.90615608 -176.36223101 275.40880079 -176.35742188 272.91088867 C-176.36476619 271.11329115 -176.37335347 269.31569835 -176.38308716 267.51811218 C-176.40527534 262.64606792 -176.40823513 257.77419294 -176.40633965 252.90210509 C-176.4062198 248.82922823 -176.41478967 244.75638705 -176.42311716 240.68352014 C-176.44234208 231.07080879 -176.44523859 221.45818428 -176.43847656 211.84545898 C-176.43183845 201.9427694 -176.45469305 192.04045255 -176.49179029 182.13783854 C-176.52252341 173.62378937 -176.53384334 165.10985986 -176.52995348 156.59575635 C-176.52788948 151.51602117 -176.53331117 146.43657599 -176.55784607 141.35689354 C-176.58016993 136.5771916 -176.57818857 131.79809388 -176.55791855 127.01838875 C-176.55451831 125.26972862 -176.55955489 123.52102737 -176.57390213 121.77242279 C-176.66125796 110.33124365 -175.68216286 101.65743183 -167.86328125 92.75 C-163.18599168 88.43908762 -157.65938641 85.50335866 -152.125 82.4375 C-150.38155382 81.4520739 -148.63811738 80.46663004 -146.89529419 79.48010254 C-145.09665686 78.46377078 -143.29536773 77.45226947 -141.49365234 76.44140625 C-135.94638081 73.32315211 -130.44465277 70.12587366 -124.9375 66.9375 C-122.77104229 65.68713789 -120.604375 64.43713881 -118.4375 63.1875 C-117.365 62.56875 -116.2925 61.95 -115.1875 61.3125 C-111.9375 59.4375 -108.6875 57.5625 -105.4375 55.6875 C-104.36459717 55.0685083 -103.29169434 54.4495166 -102.1862793 53.81176758 C-100.02371417 52.5641526 -97.86111661 51.31659384 -95.69848633 50.0690918 C-90.21879629 46.90806551 -84.73970642 43.74600691 -79.26171875 40.58203125 C-68.4551475 34.34173967 -57.64534257 28.10822911 -46.79467773 21.94482422 C-42.04110244 19.23751418 -37.31826061 16.48511472 -32.6171875 13.6875 C-31.54678223 13.05336182 -30.47637695 12.41922363 -29.37353516 11.76586914 C-27.3089686 10.54057658 -25.24846153 9.30840749 -23.19287109 8.06811523 C-15.83618315 3.71015223 -8.73149423 0.01224613 0 0 Z " fill="#EE6B00" transform="translate(259.9375,29.5625)"/>
<path d="M0 0 C0.91652344 -0.01933594 1.83304688 -0.03867187 2.77734375 -0.05859375 C11.37666569 1.23999589 18.72968273 5.77783235 26 10.3125 C31.96436118 13.9937395 37.96643462 17.51606999 44.13598633 20.84326172 C49.61848977 23.82989286 55.02205712 26.95648052 60.4375 30.0625 C61.67865276 30.77337633 62.9198646 31.48414951 64.16113281 32.19482422 C66.03308535 33.26663564 67.90498038 34.33854629 69.77661133 35.41091919 C73.41865246 37.49752047 77.06330592 39.57943839 80.7109375 41.65625 C90.76124488 47.37990811 100.77105079 53.16888241 110.75512695 59.00732422 C117.20599054 62.77770616 123.66938402 66.52544174 130.14428711 70.25439453 C133.43804688 72.15181103 136.72883983 74.05429977 140.01953125 75.95703125 C143.73356763 78.10259476 147.45775238 80.22689805 151.19921875 82.32421875 C158.7519037 86.59478855 165.45465855 90.63205173 171.0625 97.4375 C169.72088142 100.64208064 168.59560362 102.04959839 165.52734375 103.6640625 C164.80998047 104.05037842 164.09261719 104.43669434 163.35351562 104.8347168 C162.57685547 105.23988525 161.80019531 105.64505371 161 106.0625 C159.3414471 106.95517427 157.68391595 107.84974917 156.02734375 108.74609375 C155.18929199 109.19710449 154.35124023 109.64811523 153.48779297 110.11279297 C149.96448017 112.03724387 146.5116519 114.07140709 143.0625 116.125 C135.94601283 120.34308387 128.79280694 124.4947407 121.625 128.625 C120.51979004 129.26195801 119.41458008 129.89891602 118.27587891 130.55517578 C114.87171169 132.51645869 111.46714968 134.47705475 108.0625 136.4375 C103.68699212 138.95745295 99.31195536 141.47822038 94.9375 144 C93.86274414 144.6194751 92.78798828 145.2389502 91.68066406 145.87719727 C84.39677453 150.07965238 77.13256633 154.31478817 69.875 158.5625 C61.03922776 163.73262176 52.14884348 168.79772406 43.22729492 173.81811523 C33.9881825 179.02494715 24.85376539 184.39983592 15.73828125 189.81933594 C13.38932694 191.21510528 11.03844131 192.6075809 8.6875 194 C7.9670752 194.43014404 7.24665039 194.86028809 6.50439453 195.3034668 C3.71508374 196.95468774 1.14752154 198.40915949 -1.9375 199.4375 C-4.44604492 198.37695312 -4.44604492 198.37695312 -7.41796875 196.71875 C-8.50013672 196.11546875 -9.58230469 195.5121875 -10.69726562 194.890625 C-11.82841797 194.24609375 -12.95957031 193.6015625 -14.125 192.9375 C-15.79272461 192.01710937 -15.79272461 192.01710937 -17.49414062 191.078125 C-23.29569703 187.80809439 -28.48865695 184.48272517 -33.32055664 179.88208008 C-35.61512215 177.83211117 -38.12912823 176.65020599 -40.9375 175.4375 C-42.27083333 174.77083333 -43.60416667 174.10416667 -44.9375 173.4375 C-44.9375 172.7775 -44.9375 172.1175 -44.9375 171.4375 C-45.94876953 171.31568359 -45.94876953 171.31568359 -46.98046875 171.19140625 C-50.83219141 170.20939506 -53.85557836 168.39906811 -57.25 166.375 C-58.21776367 165.80942383 -58.21776367 165.80942383 -59.20507812 165.23242188 C-60.78628152 164.30712507 -62.3624146 163.37317319 -63.9375 162.4375 C-63.9375 161.7775 -63.9375 161.1175 -63.9375 160.4375 C-64.61039062 160.36015625 -65.28328125 160.2828125 -65.9765625 160.203125 C-69.84730087 159.20224806 -72.94100214 157.26146993 -76.3125 155.1875 C-77.84255969 154.26624935 -79.37387677 153.34708474 -80.90625 152.4296875 C-81.72222656 151.94081055 -82.53820312 151.45193359 -83.37890625 150.94824219 C-87.81494032 148.32895032 -92.31725043 145.82830729 -96.8125 143.3125 C-106.53938076 137.85172353 -116.13461527 132.18783252 -125.71240234 126.47045898 C-134.53708686 121.22158776 -143.45616589 116.16187813 -152.45458984 111.21704102 C-159.11756301 107.53647184 -165.56072984 103.59406543 -171.9375 99.4375 C-166.78816304 90.25863051 -158.48062063 85.73558032 -149.4375 80.875 C-147.19558453 79.64510493 -144.95472438 78.41328453 -142.71484375 77.1796875 C-141.58288574 76.55803711 -140.45092773 75.93638672 -139.28466797 75.29589844 C-134.14393976 72.44168815 -129.07000143 69.47753953 -124 66.5 C-122.00923184 65.33313326 -120.01834539 64.16646832 -118.02734375 63 C-116.53243408 62.12408203 -116.53243408 62.12408203 -115.00732422 61.23046875 C-106.44194225 56.22775162 -97.83701949 51.29282398 -89.24169922 46.34179688 C-85.91135748 44.42243338 -82.58240852 42.50067647 -79.25390625 40.578125 C-68.45022249 34.33864068 -57.64281674 28.10679438 -46.79467773 21.94482422 C-42.04110244 19.23751418 -37.31826061 16.48511472 -32.6171875 13.6875 C-31.54678223 13.05336182 -30.47637695 12.41922363 -29.37353516 11.76586914 C-27.3089686 10.54057658 -25.24846153 9.30840749 -23.19287109 8.06811523 C-15.83618315 3.71015223 -8.73149423 0.01224613 0 0 Z " fill="#FE9700" transform="translate(259.9375,29.5625)"/>
<path d="M0 0 C0.91652344 -0.01933594 1.83304688 -0.03867187 2.77734375 -0.05859375 C11.37666569 1.23999589 18.72968273 5.77783235 26 10.3125 C31.96436118 13.9937395 37.96643462 17.51606999 44.13598633 20.84326172 C49.61848977 23.82989286 55.02205712 26.95648052 60.4375 30.0625 C61.67865276 30.77337633 62.9198646 31.48414951 64.16113281 32.19482422 C66.03308535 33.26663564 67.90498038 34.33854629 69.77661133 35.41091919 C73.41865246 37.49752047 77.06330592 39.57943839 80.7109375 41.65625 C90.76124488 47.37990811 100.77105079 53.16888241 110.75512695 59.00732422 C118.32051538 63.42912039 125.90657601 67.81405477 133.5 72.1875 C136.7006148 74.03471197 139.90088406 75.88252123 143.10107422 77.73046875 C145.86791928 79.32533937 148.63876078 80.91305551 151.41015625 82.5 C152.96116163 83.39544522 154.51195976 84.29124958 156.0625 85.1875 C157.10361938 85.77869629 157.10361938 85.77869629 158.16577148 86.38183594 C161.28365319 88.19421253 163.02664977 89.38372466 165.0625 92.4375 C160.24289576 91.03730917 156.19242505 88.91071907 151.9375 86.3125 C144.77747784 82.02051145 137.55792441 77.84139 130.30249023 73.71316528 C119.83498923 67.75687649 109.40410432 61.742447 99.00830078 55.66162109 C83.03606882 46.32217326 67.00338544 37.08599651 50.91796875 27.94287109 C46.17986823 25.24306497 41.46860172 22.50316307 36.77734375 19.72265625 C35.7114502 19.09302979 34.64555664 18.46340332 33.54736328 17.81469727 C31.49657564 16.60117516 29.44912404 15.38198965 27.40576172 14.15600586 C15.94296868 7.26328424 15.94296868 7.26328424 3 5 C1.62134766 5.00193359 1.62134766 5.00193359 0.21484375 5.00390625 C-9.22307768 6.30205901 -16.89130612 10.9979231 -25 15.75 C-26.24503185 16.47141266 -27.49048182 17.19210415 -28.73632812 17.91210938 C-31.88427769 19.73419055 -35.02647998 21.56590349 -38.1663208 23.4019165 C-40.81646353 24.95141758 -43.46896623 26.49686798 -46.12109375 28.04296875 C-49.03371595 29.74205909 -51.94565465 31.44227354 -54.85571289 33.14575195 C-63.11343059 37.97519745 -71.41697792 42.72215345 -79.72851562 47.45800781 C-88.80051599 52.62855228 -97.83340054 57.86271786 -106.84399414 63.13964844 C-114.05420257 67.35552859 -121.29631665 71.51262493 -128.55270386 75.64825439 C-130.35500455 76.6760967 -132.15632971 77.70562544 -133.95727539 78.73583984 C-134.82564781 79.23254684 -134.82564781 79.23254684 -135.71156311 79.73928833 C-136.28112228 80.06508881 -136.85068146 80.39088928 -137.4375 80.7265625 C-141.38792835 82.98575683 -145.34533386 85.23129352 -149.3125 87.4609375 C-150.83360824 88.3276427 -152.35446578 89.19478815 -153.875 90.0625 C-154.86681274 90.61019043 -154.86681274 90.61019043 -155.87866211 91.16894531 C-160.30004347 93.71560454 -162.88476441 96.45092221 -165.9375 100.4375 C-166.9275 101.4275 -166.9275 101.4275 -167.9375 102.4375 C-169.2575 101.1175 -170.5775 99.7975 -171.9375 98.4375 C-166.51815265 91.02777418 -159.82802515 86.88697775 -151.9375 82.4375 C-151.08994141 81.95619629 -150.24238281 81.47489258 -149.36914062 80.97900391 C-144.46214313 78.19327842 -139.54749894 75.42144086 -134.62890625 72.65625 C-129.93043764 70.0082624 -125.26498091 67.31145678 -120.625 64.5625 C-110.25350419 58.42050145 -99.80003159 52.42116215 -89.35449219 46.40625 C-85.97729997 44.46043134 -82.60164404 42.51197709 -79.2265625 40.5625 C-68.43207191 34.32808712 -57.63368901 28.10160964 -46.79467773 21.94482422 C-42.04110244 19.23751418 -37.31826061 16.48511472 -32.6171875 13.6875 C-31.54678223 13.05336182 -30.47637695 12.41922363 -29.37353516 11.76586914 C-27.3089686 10.54057658 -25.24846153 9.30840749 -23.19287109 8.06811523 C-15.83618315 3.71015223 -8.73149423 0.01224613 0 0 Z " fill="#FEA217" transform="translate(259.9375,29.5625)"/>
<path d="M0 0 C3.65565505 1.38440475 7.02580406 3.02273362 10.4453125 4.9140625 C11.50806396 5.50179443 12.57081543 6.08952637 13.66577148 6.69506836 C15.3780896 7.65038452 15.3780896 7.65038452 17.125 8.625 C17.71757599 8.95468781 18.31015198 9.28437561 18.92068481 9.62405396 C28.97340893 15.2217936 38.89203412 21.02834239 48.77075195 26.92822266 C60.31513431 33.81411015 71.98440624 40.47135056 83.67382812 47.10742188 C86.0395952 48.45353362 88.40294966 49.80330922 90.76367188 51.15820312 C91.3907756 51.51781128 92.01787933 51.87741943 92.66398621 52.2479248 C94.41813376 53.25432558 96.17161198 54.26189273 97.92504883 55.26953125 C101.56065265 57.31551457 105.23983294 59.19511981 109 61 C109 61.66 109 62.32 109 63 C109.78375 63.20625 110.5675 63.4125 111.375 63.625 C115.51206194 65.19423039 118.99412221 67.31274344 122.73046875 69.66015625 C125.03714501 71.12903566 125.03714501 71.12903566 128 72 C128 72.66 128 73.32 128 74 C128.9590625 74.185625 128.9590625 74.185625 129.9375 74.375 C130.9584375 74.684375 130.9584375 74.684375 132 75 C132.33 75.66 132.66 76.32 133 77 C126.81831031 75.37160188 121.68914573 72.05747495 116.25 68.8125 C114.0837054 67.53452535 111.91702572 66.25720327 109.75 64.98046875 C108.63367188 64.32095215 107.51734375 63.66143555 106.3671875 62.98193359 C101.01338616 59.83067495 95.63291071 56.7261944 90.25 53.625 C89.1779834 53.0067334 88.1059668 52.3884668 87.00146484 51.75146484 C78.38326614 46.78567384 69.74489898 41.85562714 61.10488892 36.927948 C52.85794394 32.22280741 44.63543992 27.47756767 36.4375 22.6875 C35.46586914 22.1200708 34.49423828 21.5526416 33.49316406 20.96801758 C29.71130013 18.75808302 25.9303512 16.54665515 22.15380859 14.32763672 C19.47960871 12.75652679 16.80253422 11.19041837 14.125 9.625 C12.92895142 8.91863403 12.92895142 8.91863403 11.70874023 8.19799805 C8.095554 5.84896139 8.095554 5.84896139 4 5 C1.95142714 9.21863538 1.70889673 13.02048825 1.7215271 17.62458801 C1.7157347 18.38431732 1.7099423 19.14404663 1.70397437 19.92679805 C1.68699348 22.46792488 1.68409953 25.00886988 1.68115234 27.55004883 C1.67185285 29.37342778 1.66168414 31.19680247 1.65071106 33.02017212 C1.62339945 37.96805631 1.60825817 42.91591201 1.59528303 47.86385179 C1.57965762 53.03554444 1.5528655 58.20717886 1.5272522 63.37882996 C1.48045401 73.17115651 1.44371491 82.96349401 1.41057932 92.75587529 C1.37236531 103.90454545 1.32295325 115.05315716 1.27259517 126.20177805 C1.16925983 149.13447538 1.0800046 172.06721025 1 195 C-2.62200097 191.37799903 -3.22598572 187.68503644 -3.27214891 182.64989436 C-3.26836958 181.96497176 -3.26459026 181.28004916 -3.26069641 180.57437134 C-3.26452196 179.8359152 -3.26834751 179.09745906 -3.27228898 178.33662546 C-3.28259137 175.86708503 -3.27863211 173.39777831 -3.2746582 170.92822266 C-3.27900623 169.15561203 -3.28418968 167.38300329 -3.29014587 165.61039734 C-3.30353797 160.79837223 -3.30411426 155.98642566 -3.30158257 151.17438555 C-3.30051291 147.15601226 -3.30539615 143.13765487 -3.310188 139.11928499 C-3.32128411 129.63810499 -3.32172013 120.1569646 -3.31567383 110.67578125 C-3.30963428 100.89813518 -3.32194435 91.12063302 -3.3432439 81.3430115 C-3.36086388 72.94540923 -3.36686059 64.54785275 -3.36360615 56.15023267 C-3.36179365 51.13603069 -3.36442622 46.12193135 -3.37832069 41.10774612 C-3.39090069 36.39140427 -3.38895326 31.67528657 -3.37590981 26.95894814 C-3.37354478 25.22999686 -3.37627607 23.50102981 -3.38453293 21.77209663 C-3.39500865 19.40767052 -3.38689357 17.04399542 -3.3742218 14.67959595 C-3.38159609 13.99913479 -3.38897037 13.31867364 -3.39656812 12.61759245 C-3.34118044 7.68834958 -2.12629805 4.34879139 0 0 Z " fill="#F27A17" transform="translate(87,129)"/>
<path d="M0 0 C1.65 1.32 3.3 2.64 5 4 C3.65838142 7.20458064 2.53310362 8.61209839 -0.53515625 10.2265625 C-1.25251953 10.61287842 -1.96988281 10.99919434 -2.70898438 11.3972168 C-3.48564453 11.80238525 -4.26230469 12.20755371 -5.0625 12.625 C-6.7210529 13.51767427 -8.37858405 14.41224917 -10.03515625 15.30859375 C-10.87320801 15.75960449 -11.71125977 16.21061523 -12.57470703 16.67529297 C-16.09801983 18.59974387 -19.5508481 20.63390709 -23 22.6875 C-30.11648717 26.90558387 -37.26969306 31.0572407 -44.4375 35.1875 C-45.54270996 35.82445801 -46.64791992 36.46141602 -47.78662109 37.11767578 C-51.19078831 39.07895869 -54.59535032 41.03955475 -58 43 C-62.37550788 45.51995295 -66.75054464 48.04072038 -71.125 50.5625 C-72.73713379 51.49171265 -72.73713379 51.49171265 -74.38183594 52.43969727 C-81.66572547 56.64215238 -88.92993367 60.87728817 -96.1875 65.125 C-105.02327224 70.29512176 -113.91365652 75.36022406 -122.83520508 80.38061523 C-132.0743175 85.58744715 -141.20873461 90.96233592 -150.32421875 96.38183594 C-152.67317306 97.77760528 -155.02405869 99.1700809 -157.375 100.5625 C-158.0954248 100.99264404 -158.81584961 101.42278809 -159.55810547 101.8659668 C-162.34741626 103.51718774 -164.91497846 104.97165949 -168 106 C-170.58789062 104.87597656 -170.58789062 104.87597656 -173.65625 103.140625 C-174.76097656 102.51929688 -175.86570313 101.89796875 -177.00390625 101.2578125 C-177.86459717 100.7632959 -177.86459717 100.7632959 -178.74267578 100.25878906 C-180.48747006 99.25719279 -182.24072758 98.27198869 -183.99609375 97.2890625 C-193.33703533 91.99186576 -193.33703533 91.99186576 -196 89 C-192.73237323 89.65101072 -190.27445416 90.85369726 -187.41015625 92.5390625 C-186.54326172 93.03664063 -185.67636719 93.53421875 -184.78320312 94.046875 C-182.96891746 95.09923883 -181.1589928 96.1591571 -179.35351562 97.2265625 C-178.48533203 97.7215625 -177.61714844 98.2165625 -176.72265625 98.7265625 C-175.93640869 99.18627441 -175.15016113 99.64598633 -174.34008789 100.11962891 C-171.38953272 101.22966562 -169.98104193 100.95848294 -167 100 C-164.62131817 98.86897154 -164.62131817 98.86897154 -162.24609375 97.40234375 C-161.32393066 96.85650635 -160.40176758 96.31066895 -159.45166016 95.74829102 C-157.95965088 94.85194946 -157.95965088 94.85194946 -156.4375 93.9375 C-154.26766795 92.6523941 -152.09706372 91.3685913 -149.92578125 90.0859375 C-148.79092285 89.41401367 -147.65606445 88.74208984 -146.48681641 88.04980469 C-140.73561461 84.6581684 -134.9275976 81.36507818 -129.125 78.0625 C-126.75483412 76.71159316 -124.38514669 75.3598489 -122.015625 74.0078125 C-121.43038559 73.67392517 -120.84514618 73.34003784 -120.24217224 72.99603271 C-110.88057391 67.6520093 -101.55112665 62.25202681 -92.21777344 56.85888672 C-85.72874904 53.11021966 -79.2366305 49.36691333 -72.74511719 45.62255859 C-67.35251686 42.51181661 -61.96062178 39.39986673 -56.5703125 36.28515625 C-54.42193455 35.04416774 -52.27349706 33.80328229 -50.125 32.5625 C-48.54356201 31.64911865 -48.54356201 31.64911865 -46.93017578 30.71728516 C-41.10256918 27.35510268 -35.26721219 24.00700936 -29.421875 20.67578125 C-28.78978119 20.31539261 -28.15768738 19.95500397 -27.50643921 19.58369446 C-24.4510803 17.84196776 -21.39468513 16.10210734 -18.33642578 14.36547852 C-13.60657631 11.67183304 -8.90455713 8.9750394 -4.3203125 6.0390625 C-1 4 -1 4 1 4 C0.67 2.68 0.34 1.36 0 0 Z " fill="#F78C01" transform="translate(426,123)"/>
<path d="M0 0 C0.99 0.33 1.98 0.66 3 1 C3 31.36 3 61.72 3 93 C2.34 93 1.68 93 1 93 C-1.61134808 89.10816442 -1.27427709 84.98626194 -1.24291992 80.48364258 C-1.24481827 79.62635056 -1.24671661 78.76905853 -1.24867249 77.88578796 C-1.25237407 75.05527573 -1.24168697 72.22502063 -1.23046875 69.39453125 C-1.22927676 67.42966238 -1.22882383 65.46479293 -1.2290802 63.49992371 C-1.22751654 59.38508531 -1.21923399 55.27033406 -1.20581055 51.15551758 C-1.18878737 45.86905742 -1.18499722 40.58269274 -1.18575573 35.29620838 C-1.18548449 31.24117616 -1.18001127 27.186165 -1.17275429 23.13113976 C-1.16956272 21.1809982 -1.16759908 19.23085425 -1.16686058 17.28071022 C-1.16470406 14.56315624 -1.15597583 11.84570575 -1.14526367 9.12817383 C-1.14571686 8.31518829 -1.14617004 7.50220276 -1.14663696 6.6645813 C-1.11447686 1.11447686 -1.11447686 1.11447686 0 0 Z " fill="#F27A18" transform="translate(172,379)"/>
<path d="M0 0 C2 2 2 2 3 5 C3.66 4.34 4.32 3.68 5 3 C5.19335938 3.59167969 5.38671875 4.18335938 5.5859375 4.79296875 C6.94414719 8.9146645 8.32050585 12.9950524 10 17 C4.59838495 13.19431667 2.01057752 9.3155788 0 3 C0 2.01 0 1.02 0 0 Z " fill="#F0700D" transform="translate(84,317)"/>
<path d="M0 0 C4.97209562 1.76429199 9.43438061 4.3939166 14 7 C12.328125 7.67578125 12.328125 7.67578125 10 8 C7.421875 6.85546875 7.421875 6.85546875 4.75 5.1875 C3.85796875 4.64480469 2.9659375 4.10210937 2.046875 3.54296875 C1.37140625 3.03378906 0.6959375 2.52460937 0 2 C0 1.34 0 0.68 0 0 Z " fill="#FAA723" transform="translate(316,58)"/>
<path d="M0 0 C6.75 2.75 6.75 2.75 9 5 C5.26512223 4.5020163 3.18762365 4.12508244 0 2 C0 1.34 0 0.68 0 0 Z " fill="#F0AA29" transform="translate(295,46)"/>
</svg>
